# xmcd
#
# Track frame offsets:
# 166
# 13847
# 35062
# 51514
# 69057
# 86966
# 99481
# 117987
# 127955
# 144862
# 157799
#
# Disc length: 2377 seconds
#
#
# Revision: 0
# Processed by: cddbd v1.5.2PL0 Copyright (c) Steve Scherf et al.
# Submitted via: FreeRIP 2.951 
#
DISCID=8d09470b
DTITLE=Gordie Tentrees - Bottleneck To Wire
DYEAR=2007
DGENRE=Country
TTITLE0=Plenty To Hold
TTITLE1=Bottleneck To Wire
TTITLE2=87 Men
TTITLE3=Death And Dust
TTITLE4=Farm Boy
TTITLE5=Back To The City
TTITLE6=2 Sons
TTITLE7=Fishing Fool
TTITLE8=Underpaid
TTITLE9=Bottle Fever
TTITLE10=Make Me Spin
EXTD=Yukon Music
EXTT0=
EXTT1=
EXTT2=
EXTT3=
EXTT4=
EXTT5=
EXTT6=
EXTT7=
EXTT8=
EXTT9=
EXTT10=
PLAYORDER=
